<svg width="23" height="18" fill="none" xmlns="http://www.w3.org/2000/svg"><path d="M20.075 4.614a8.814 8.814 0 002.213-2.292 9.222 9.222 0 01-2.544.697 4.392 4.392 0 001.943-2.44 8.836 8.836 0 01-2.8 1.068 4.414 4.414 0 00-7.638 3.019c0 .35.03.687.102 1.007-3.67-.18-6.919-1.938-9.101-4.619a4.453 4.453 0 00-.605 2.232 4.42 4.42 0 001.962 3.67 4.365 4.365 0 01-1.995-.544v.048a4.436 4.436 0 003.537 4.34c-.36.098-.75.145-1.157.145a3.9 3.9 0 01-.836-.076c.572 1.749 2.196 3.035 4.126 3.077a8.876 8.876 0 01-5.476 1.883c-.361 0-.709-.017-1.056-.06a12.435 12.435 0 006.774 1.981c7.792 0 12.87-6.501 12.551-13.136z" fill="#000"/></svg>