<svg width="23" height="23" fill="none" xmlns="http://www.w3.org/2000/svg"><path d="M22.438 6.615c-.052-1.195-.246-2.017-.522-2.73a5.491 5.491 0 00-1.302-1.995 5.538 5.538 0 00-1.99-1.297c-.717-.277-1.535-.47-2.73-.523C14.689.013 14.307 0 11.252 0 8.197 0 7.815.013 6.615.066 5.42.119 4.598.312 3.885.589A5.49 5.49 0 001.89 1.89 5.54 5.54 0 00.593 3.881c-.277.717-.47 1.534-.523 2.73C.013 7.815 0 8.197 0 11.252c0 3.055.013 3.437.066 4.637.053 1.196.246 2.018.523 2.73.286.756.73 1.433 1.301 1.995a5.537 5.537 0 001.991 1.297c.717.277 1.534.47 2.73.523 1.2.053 1.582.066 4.637.066 3.055 0 3.437-.013 4.637-.066 1.196-.053 2.017-.246 2.73-.523a5.755 5.755 0 003.292-3.292c.276-.716.47-1.534.523-2.73.052-1.2.066-1.582.066-4.637 0-3.055-.005-3.437-.058-4.637zm-2.026 9.186c-.048 1.1-.233 1.693-.387 2.088a3.732 3.732 0 01-2.136 2.137c-.395.153-.993.338-2.088.386-1.186.053-1.542.066-4.544.066s-3.363-.013-4.545-.066c-1.1-.048-1.693-.233-2.088-.386a3.463 3.463 0 01-1.292-.84 3.498 3.498 0 01-.84-1.292c-.154-.396-.338-.994-.387-2.088-.052-1.187-.065-1.543-.065-4.545s.013-3.363.065-4.545c.049-1.099.233-1.692.387-2.088a3.42 3.42 0 01.844-1.292c.365-.374.804-.66 1.292-.84.396-.153.994-.338 2.088-.386 1.187-.053 1.543-.066 4.545-.066 3.007 0 3.362.013 4.545.066 1.099.048 1.692.233 2.088.387.488.18.932.465 1.292.839.373.365.66.804.84 1.292.153.396.338.994.386 2.088.053 1.187.066 1.543.066 4.545s-.013 3.354-.066 4.54z" fill="#000"/><path d="M10.74 5a5.781 5.781 0 00-5.78 5.78 5.781 5.781 0 005.78 5.78 5.781 5.781 0 005.78-5.78A5.781 5.781 0 0010.74 5zm0 9.53a3.75 3.75 0 11.002-7.5 3.75 3.75 0 01-.002 7.5zM18.61 5.244a1.35 1.35 0 11-2.699 0 1.35 1.35 0 012.7 0z" fill="#000"/></svg>