<svg width="492" height="154" viewBox="0 0 492 154" fill="none" xmlns="http://www.w3.org/2000/svg">
<path d="M155.648 45.4664C155.648 40.1834 156.832 35.4647 159.199 31.3101C161.617 27.1042 164.884 23.8472 169 21.5391C173.168 19.1797 177.824 18 182.97 18C188.99 18 194.263 19.5387 198.791 22.6162C203.319 25.6937 206.483 29.9509 208.284 35.3877H195.859C194.624 32.8232 192.874 30.8997 190.61 29.6175C188.398 28.3352 185.825 27.694 182.892 27.694C179.754 27.694 176.95 28.4378 174.48 29.9252C172.062 31.3614 170.158 33.413 168.769 36.0802C167.431 38.7473 166.762 41.8761 166.762 45.4664C166.762 49.0055 167.431 52.1343 168.769 54.8527C170.158 57.5199 172.062 59.5972 174.48 61.0846C176.95 62.5208 179.754 63.2388 182.892 63.2388C185.825 63.2388 188.398 62.5977 190.61 61.3154C192.874 59.9819 194.624 58.0328 195.859 55.4682H208.284C206.483 60.9564 203.319 65.2392 198.791 68.3167C194.315 71.3429 189.041 72.856 182.97 72.856C177.824 72.856 173.168 71.7019 169 69.3938C164.884 67.0344 161.617 63.7774 159.199 59.6228C156.832 55.4682 155.648 50.7494 155.648 45.4664Z" fill="#6C6C80"/>
<path d="M214.735 50.929C214.735 46.6205 215.584 42.7993 217.282 39.4654C219.031 36.1314 221.372 33.5669 224.305 31.7717C227.289 29.9765 230.608 29.0789 234.261 29.0789C237.451 29.0789 240.229 29.72 242.596 31.0023C245.014 32.2846 246.944 33.9003 248.385 35.8493V29.7713H259.267V72.3943H248.385V66.1624C246.995 68.1628 245.066 69.8298 242.596 71.1633C240.178 72.4456 237.374 73.0868 234.184 73.0868C230.582 73.0868 227.289 72.1635 224.305 70.317C221.372 68.4706 219.031 65.8803 217.282 62.5464C215.584 59.1612 214.735 55.2887 214.735 50.929ZM248.385 51.0828C248.385 48.467 247.87 46.2358 246.841 44.3893C245.812 42.4916 244.423 41.0554 242.673 40.0809C240.924 39.055 239.046 38.5421 237.039 38.5421C235.033 38.5421 233.18 39.0294 231.482 40.0039C229.785 40.9785 228.395 42.4146 227.315 44.3124C226.286 46.1589 225.771 48.3644 225.771 50.929C225.771 53.4935 226.286 55.7503 227.315 57.6994C228.395 59.5972 229.785 61.059 231.482 62.0848C233.232 63.1106 235.084 63.6235 237.039 63.6235C239.046 63.6235 240.924 63.1363 242.673 62.1617C244.423 61.1359 245.812 59.6998 246.841 57.8533C247.87 55.9555 248.385 53.6987 248.385 51.0828Z" fill="#6C6C80"/>
<path d="M280.625 36.3879C282.014 34.1311 283.815 32.3615 286.027 31.0793C288.291 29.797 290.864 29.1558 293.745 29.1558V40.4655H290.89C287.494 40.4655 284.921 41.2606 283.172 42.8506C281.474 44.4406 280.625 47.2103 280.625 51.1598V72.3943H269.82V29.7713H280.625V36.3879Z" fill="#6C6C80"/>
<path d="M354.122 29.1558C359.37 29.1558 363.589 30.7715 366.779 34.0029C370.021 37.1829 371.641 41.6452 371.641 47.3899V72.3943H360.836V48.8517C360.836 45.5177 359.987 42.9788 358.289 41.2349C356.591 39.4397 354.276 38.5421 351.343 38.5421C348.411 38.5421 346.069 39.4397 344.32 41.2349C342.622 42.9788 341.773 45.5177 341.773 48.8517V72.3943H330.968V48.8517C330.968 45.5177 330.119 42.9788 328.421 41.2349C326.723 39.4397 324.408 38.5421 321.475 38.5421C318.491 38.5421 316.124 39.4397 314.375 41.2349C312.677 42.9788 311.828 45.5177 311.828 48.8517V72.3943H301.023V29.7713H311.828V34.9261C313.217 33.1309 314.992 31.7204 317.153 30.6946C319.366 29.6687 321.784 29.1558 324.408 29.1558C327.752 29.1558 330.737 29.8739 333.361 31.3101C335.985 32.6949 338.017 34.6953 339.458 37.3111C340.847 34.8492 342.854 32.8745 345.478 31.387C348.153 29.8996 351.035 29.1558 354.122 29.1558Z" fill="#6C6C80"/>
<path d="M421.642 50.1596C421.642 51.6983 421.539 53.0832 421.333 54.3142H390.076C390.333 57.3917 391.413 59.8023 393.317 61.5462C395.221 63.2901 397.562 64.1621 400.34 64.1621C404.354 64.1621 407.209 62.4438 408.907 59.0073H420.561C419.326 63.1106 416.959 66.4958 413.461 69.163C409.962 71.7788 405.666 73.0868 400.572 73.0868C396.456 73.0868 392.751 72.1892 389.458 70.394C386.217 68.5475 383.67 65.9573 381.817 62.6234C380.017 59.2894 379.116 55.4426 379.116 51.0828C379.116 46.6718 380.017 42.7993 381.817 39.4654C383.618 36.1314 386.139 33.5669 389.381 31.7717C392.622 29.9765 396.353 29.0789 400.572 29.0789C404.637 29.0789 408.264 29.9508 411.454 31.6947C414.696 33.4387 417.191 35.9263 418.94 39.1576C420.741 42.3377 421.642 46.005 421.642 50.1596ZM410.451 47.0821C410.399 44.3124 409.396 42.1069 407.441 40.4655C405.486 38.7729 403.093 37.9266 400.263 37.9266C397.588 37.9266 395.324 38.7473 393.471 40.3886C391.671 41.9786 390.564 44.2098 390.153 47.0821H410.451Z" fill="#6C6C80"/>
<path d="M453.222 29.1558C458.316 29.1558 462.432 30.7715 465.571 34.0029C468.709 37.1829 470.279 41.6452 470.279 47.3899V72.3943H459.474V48.8517C459.474 45.4664 458.625 42.8762 456.927 41.081C455.229 39.2346 452.913 38.3113 449.981 38.3113C446.996 38.3113 444.63 39.2346 442.88 41.081C441.182 42.8762 440.333 45.4664 440.333 48.8517V72.3943H429.528V29.7713H440.333V35.08C441.774 33.2335 443.6 31.7973 445.813 30.7715C448.077 29.6944 450.547 29.1558 453.222 29.1558Z" fill="#6C6C80"/>
<path d="M286.494 80.5023V134.365H275.675V99.331L261.224 134.365H253.032L238.504 99.331V134.365H227.685V80.5023H239.972L257.128 120.552L274.284 80.5023H286.494Z" fill="#6C6C80"/>
<path d="M294.408 112.835C294.408 108.514 295.258 104.681 296.958 101.337C298.71 97.9934 301.054 95.4212 303.991 93.6207C306.979 91.8201 310.302 90.9198 313.96 90.9198C317.154 90.9198 319.936 91.5629 322.306 92.849C324.727 94.1351 326.659 95.7556 328.102 97.7105V91.6143H338.998V134.365H328.102V128.114C326.711 130.121 324.779 131.793 322.306 133.13C319.884 134.416 317.077 135.059 313.882 135.059C310.276 135.059 306.979 134.133 303.991 132.281C301.054 130.429 298.71 127.831 296.958 124.487C295.258 121.092 294.408 117.208 294.408 112.835ZM328.102 112.99C328.102 110.366 327.587 108.128 326.556 106.276C325.526 104.373 324.135 102.932 322.383 101.955C320.631 100.926 318.751 100.411 316.742 100.411C314.733 100.411 312.878 100.9 311.178 101.878C309.478 102.855 308.087 104.295 307.005 106.199C305.974 108.051 305.459 110.263 305.459 112.835C305.459 115.407 305.974 117.671 307.005 119.626C308.087 121.529 309.478 122.996 311.178 124.024C312.929 125.053 314.784 125.568 316.742 125.568C318.751 125.568 320.631 125.079 322.383 124.102C324.135 123.073 325.526 121.632 326.556 119.78C327.587 117.877 328.102 115.613 328.102 112.99Z" fill="#6C6C80"/>
<path d="M362.161 100.489V121.169C362.161 122.61 362.496 123.664 363.166 124.333C363.887 124.95 365.072 125.259 366.72 125.259H371.744V134.365H364.943C355.824 134.365 351.265 129.941 351.265 121.092V100.489H346.164V91.6143H351.265V81.0424H362.161V91.6143H371.744V100.489H362.161Z" fill="#6C6C80"/>
<path d="M392.121 100.489V121.169C392.121 122.61 392.456 123.664 393.126 124.333C393.847 124.95 395.032 125.259 396.681 125.259H401.704V134.365H394.904C385.785 134.365 381.225 129.941 381.225 121.092V100.489H376.125V91.6143H381.225V81.0424H392.121V91.6143H401.704V100.489H392.121Z" fill="#6C6C80"/>
<path d="M428.496 135.059C424.375 135.059 420.665 134.159 417.368 132.358C414.071 130.506 411.469 127.909 409.563 124.565C407.708 121.221 406.781 117.362 406.781 112.99C406.781 108.617 407.734 104.758 409.64 101.415C411.598 98.0706 414.251 95.4984 417.6 93.6978C420.949 91.8458 424.684 90.9198 428.805 90.9198C432.927 90.9198 436.662 91.8458 440.011 93.6978C443.359 95.4984 445.987 98.0706 447.893 101.415C449.851 104.758 450.83 108.617 450.83 112.99C450.83 117.362 449.825 121.221 447.816 124.565C445.858 127.909 443.179 130.506 439.779 132.358C436.43 134.159 432.669 135.059 428.496 135.059ZM428.496 125.645C430.454 125.645 432.283 125.182 433.983 124.256C435.735 123.279 437.126 121.838 438.156 119.935C439.186 118.031 439.701 115.716 439.701 112.99C439.701 108.925 438.62 105.813 436.456 103.652C434.343 101.44 431.742 100.334 428.651 100.334C425.56 100.334 422.958 101.44 420.846 103.652C418.785 105.813 417.754 108.925 417.754 112.99C417.754 117.054 418.759 120.192 420.768 122.404C422.829 124.565 425.405 125.645 428.496 125.645Z" fill="#6C6C80"/>
<path d="M475.149 135.059C471.645 135.059 468.503 134.442 465.721 133.207C462.939 131.921 460.723 130.198 459.075 128.037C457.478 125.876 456.602 123.484 456.447 120.861H467.344C467.55 122.507 468.348 123.87 469.739 124.95C471.182 126.031 472.959 126.571 475.071 126.571C477.132 126.571 478.729 126.159 479.863 125.336C481.048 124.513 481.64 123.459 481.64 122.172C481.64 120.783 480.919 119.755 479.476 119.086C478.085 118.366 475.844 117.594 472.753 116.771C469.559 115.999 466.931 115.202 464.871 114.379C462.861 113.555 461.11 112.295 459.616 110.597C458.173 108.9 457.452 106.61 457.452 103.73C457.452 101.363 458.122 99.2024 459.461 97.2475C460.852 95.2926 462.81 93.7493 465.334 92.6175C467.91 91.4857 470.924 90.9198 474.376 90.9198C479.476 90.9198 483.546 92.2059 486.586 94.7782C489.626 97.2989 491.3 100.72 491.609 105.041H481.254C481.099 103.344 480.378 102.006 479.09 101.029C477.854 99.9998 476.179 99.4853 474.067 99.4853C472.109 99.4853 470.589 99.8455 469.507 100.566C468.477 101.286 467.962 102.289 467.962 103.575C467.962 105.016 468.683 106.122 470.126 106.893C471.568 107.614 473.809 108.36 476.849 109.131C479.94 109.903 482.49 110.7 484.499 111.523C486.509 112.347 488.235 113.633 489.677 115.382C491.171 117.079 491.944 119.343 491.995 122.172C491.995 124.642 491.3 126.854 489.909 128.809C488.569 130.764 486.612 132.307 484.036 133.439C481.511 134.519 478.549 135.059 475.149 135.059Z" fill="#6C6C80"/>
<path d="M153 80.5023H222.388V134.53H153V80.5023Z" fill="#C9B1B1"/>
<path d="M162.005 110.698C162.005 108.123 162.514 105.84 163.532 103.849C164.581 101.857 166 100.324 167.79 99.2518C169.579 98.1793 171.569 97.643 173.76 97.643C175.426 97.643 177.015 98.0107 178.527 98.7462C180.038 99.451 181.242 100.401 182.136 101.596V89.5068H188.708V123.522H182.136V119.753C181.334 121.01 180.208 122.021 178.758 122.787C177.308 123.553 175.626 123.936 173.713 123.936C171.554 123.936 169.579 123.384 167.79 122.281C166 121.178 164.581 119.63 163.532 117.639C162.514 115.616 162.005 113.302 162.005 110.698ZM182.183 110.79C182.183 109.227 181.874 107.894 181.257 106.79C180.64 105.657 179.807 104.798 178.758 104.216C177.709 103.603 176.583 103.297 175.38 103.297C174.176 103.297 173.066 103.588 172.047 104.17C171.029 104.753 170.196 105.611 169.548 106.744C168.931 107.848 168.623 109.165 168.623 110.698C168.623 112.23 168.931 113.578 169.548 114.743C170.196 115.877 171.029 116.75 172.047 117.363C173.096 117.976 174.207 118.282 175.38 118.282C176.583 118.282 177.709 117.991 178.758 117.409C179.807 116.796 180.64 115.938 181.257 114.835C181.874 113.701 182.183 112.352 182.183 110.79Z" fill="#EDE3D6"/>
<path d="M212.854 110.238C212.854 111.157 212.792 111.985 212.669 112.72H193.925C194.08 114.559 194.728 115.999 195.869 117.041C197.011 118.083 198.415 118.604 200.081 118.604C202.487 118.604 204.2 117.577 205.218 115.524H212.206C211.466 117.976 210.046 119.998 207.948 121.592C205.85 123.155 203.274 123.936 200.22 123.936C197.751 123.936 195.53 123.4 193.555 122.327C191.611 121.224 190.084 119.676 188.974 117.685C187.894 115.693 187.354 113.394 187.354 110.79C187.354 108.154 187.894 105.84 188.974 103.849C190.053 101.857 191.565 100.324 193.509 99.2518C195.453 98.1793 197.69 97.643 200.22 97.643C202.657 97.643 204.832 98.1639 206.745 99.2059C208.689 100.248 210.185 101.734 211.234 103.665C212.314 105.565 212.854 107.756 212.854 110.238ZM206.143 108.399C206.113 106.744 205.511 105.427 204.338 104.446C203.166 103.435 201.731 102.929 200.034 102.929C198.43 102.929 197.073 103.419 195.962 104.4C194.882 105.35 194.219 106.683 193.972 108.399H206.143Z" fill="#EDE3D6"/>
<path d="M50.4145 109.32C50.4145 133.714 70.19 153.49 94.5843 153.49C118.979 153.49 138.754 133.714 138.754 109.32C138.754 84.9259 118.979 65.1504 94.5843 65.1504C70.19 65.1504 50.4145 84.9259 50.4145 109.32Z" fill="url(#paint0_radial)"/>
<path fill-rule="evenodd" clip-rule="evenodd" d="M128.233 102.02C129.217 101.917 130.259 102.087 130.916 102.276L131.024 101.893C130.333 101.694 129.239 101.514 128.192 101.624C127.149 101.734 126.102 102.139 125.596 103.16C125.328 103.7 125.122 104.389 124.902 105.123C124.876 105.207 124.851 105.291 124.825 105.376C124.573 106.213 124.288 107.109 123.863 107.967C123.019 109.67 121.621 111.225 118.803 111.793C117.394 112.078 115.653 111.973 113.716 111.709C112.609 111.559 111.455 111.359 110.27 111.154C109.375 110.999 108.462 110.841 107.538 110.699C103.285 110.045 98.8816 109.737 95.6354 111.821C90.5172 115.106 86.9162 120.224 85.7503 122.38L86.097 122.571C87.2412 120.455 90.8013 115.396 95.8474 112.157C98.954 110.162 103.214 110.437 107.479 111.093C108.384 111.233 109.293 111.39 110.189 111.544C111.384 111.751 112.556 111.953 113.663 112.104C115.607 112.369 117.403 112.482 118.881 112.184C121.839 111.587 123.328 109.937 124.216 108.145C124.658 107.255 124.95 106.33 125.203 105.492C125.229 105.408 125.254 105.325 125.278 105.243C125.501 104.5 125.697 103.846 125.949 103.339C126.367 102.496 127.245 102.124 128.233 102.02Z" fill="#715E5A"/>
<path fill-rule="evenodd" clip-rule="evenodd" d="M92.794 22.2308C93.5176 18.5546 92.5057 15.2119 91.3446 13.251L91.0103 13.4542C92.1298 15.345 93.1134 18.5886 92.4117 22.1535C91.7117 25.7092 89.3297 29.6121 83.6702 32.8237L83.658 32.8306L83.6469 32.8393C80.7442 35.0942 79.4922 37.6134 79.3828 40.3636C79.274 43.0991 80.2972 46.0357 81.8819 49.1326C83.2035 51.7154 84.8952 54.4297 86.6534 57.2508C86.9895 57.79 87.328 58.3331 87.6668 58.8799C89.781 62.2921 91.9107 65.8548 93.5602 69.547C96.7442 76.674 98.1286 84.259 94.1597 92.1431C94.482 85.9965 91.1632 81.0788 89.0295 79.0711L88.7642 79.3606C90.9287 81.3972 94.3392 86.5069 93.7157 92.8346C83.8422 90.2938 77.7078 86.0084 73.8968 81.2293C70.0566 76.4136 68.5619 71.0794 67.9946 66.4809L67.9935 66.4724L67.9918 66.464C67.6954 65.0625 66.4686 62.7464 63.7847 60.2642C63.0797 59.6122 62.2736 58.9482 61.3565 58.2857C63.6893 55.7719 64.1791 53.0726 63.8174 50.7027C63.4445 48.2585 62.1684 46.1729 61.103 44.9952L60.8156 45.2622C61.8408 46.3955 63.0734 48.412 63.4321 50.763C63.7787 53.0341 63.3121 55.6252 61.0341 58.0561C58.4904 56.2703 55.1302 54.5065 50.7582 53.0298C38.4683 48.8786 36.2781 42.8902 36.6354 40.5368L36.2501 40.4767C35.8527 43.0941 38.2278 49.0699 50.1342 53.2325C47.8308 54.1304 44.2206 55.0572 40.3163 55.1285C36.1243 55.205 31.6144 54.2954 28.0134 51.3306C20.6538 45.2713 11.9173 45.6965 8.45311 46.6716L8.55746 47.0523C11.9351 46.1015 20.5312 45.6794 27.7675 51.6372C31.4645 54.681 36.077 55.601 40.3233 55.5235C44.5283 55.4467 48.3948 54.3918 50.7039 53.4279C56.8012 55.4967 60.8891 58.1212 63.5219 60.556C66.1633 62.9988 67.3318 65.2425 67.6088 66.5385C68.1826 71.1819 69.6961 76.5902 73.5936 81.4776C77.473 86.3425 83.7008 90.6745 93.6715 93.2308C93.5179 94.4656 93.2089 95.7446 92.7062 97.0544C91.7188 99.6274 90.3071 101.668 88.8692 103.493C88.4373 104.042 88.0012 104.573 87.5731 105.094C86.5827 106.3 85.6354 107.454 84.884 108.647C83.8003 110.367 83.1046 112.195 83.2323 114.443C83.3596 116.682 84.3034 119.313 86.4479 122.647C88.9434 127.477 89.6403 130.953 89.5146 133.326C89.3888 135.702 88.4416 136.957 87.6619 137.396L87.8512 137.741C88.7819 137.217 89.7733 135.814 89.904 133.347C90.0348 130.878 89.3072 127.327 86.7889 122.455L86.7846 122.447L86.7795 122.439C84.6514 119.132 83.7436 116.566 83.6215 114.42C83.4999 112.28 84.1582 110.533 85.2126 108.859C85.9503 107.688 86.8724 106.565 87.8547 105.369C88.2863 104.844 88.7296 104.304 89.1739 103.74C90.6224 101.901 92.0615 99.8243 93.0696 97.1976C93.6034 95.8066 93.9242 94.4499 94.0757 93.1426C98.6451 84.8168 97.235 76.8147 93.9154 69.384C92.2541 65.6654 90.1119 62.0832 87.997 58.6698C87.6568 58.1207 87.3173 57.576 86.9807 57.0359C85.393 54.4884 83.8683 52.042 82.6205 49.7018C83.4182 50.1131 84.5699 50.2331 85.9921 49.6385C87.9038 48.8393 90.3066 46.7513 93.0527 42.3455C95.7645 37.9946 98.9538 36.0549 101.826 35.3839C104.705 34.7114 107.282 35.31 108.765 36.0614L108.939 35.7081C107.382 34.9189 104.713 34.3042 101.738 34.999C98.7572 35.6954 95.4848 37.7036 92.7231 42.1345C89.9957 46.5104 87.6472 48.5192 85.8434 49.2733C84.0685 50.0154 82.8242 49.5447 82.2146 48.9245C80.6471 45.8559 79.668 43.0031 79.7723 40.3795C79.8763 37.7664 81.0565 35.3534 83.873 33.1614C89.6078 29.9034 92.0691 25.9135 92.794 22.2308ZM78.4846 133.314C78.5091 133.571 78.4874 133.838 78.4429 134.063L78.3963 134.299H84.0859L83.4975 136.684L85.9678 136.058L87.6591 138.344H91.1774C91.1928 138.344 91.2283 138.35 91.2887 138.38C91.3474 138.409 91.4186 138.456 91.5022 138.522C91.6694 138.654 91.8694 138.85 92.0954 139.101C92.5466 139.601 93.0832 140.298 93.6424 141.079C94.7598 142.638 95.9543 144.511 96.7129 145.76L97.045 145.553C96.2832 144.299 95.083 142.417 93.9579 140.846C93.3957 140.062 92.8491 139.351 92.3832 138.834C92.1508 138.576 91.9338 138.362 91.7418 138.21C91.6457 138.134 91.5516 138.071 91.4615 138.026C91.3731 137.982 91.2761 137.948 91.1774 137.948H87.854L86.1243 135.612L84.0333 136.141L84.5853 133.904H78.8625C78.8862 133.706 78.8931 133.49 78.8726 133.276C78.8439 132.975 78.7596 132.663 78.5777 132.411C78.3914 132.152 78.1116 131.969 77.7236 131.918C77.343 131.868 76.8684 131.947 76.2811 132.185L76.4258 132.552C76.9788 132.328 77.3832 132.272 77.6737 132.31C77.9568 132.347 78.1403 132.474 78.2628 132.644C78.3897 132.82 78.4599 133.055 78.4846 133.314Z" fill="#715E5A"/>
<path d="M95.3688 0C97.0541 3.49677 98.6271 11.0424 91.4364 13.2509C81.5491 13.2509 89.9383 4.41698 95.3688 0Z" fill="#C9B1B1"/>
<path d="M121.495 33.4491C118.974 30.2989 112.608 25.4022 107.309 31.017C102.869 40.1248 114.916 36.4333 121.495 33.4491Z" fill="#D7C7C3"/>
<path d="M101.151 52.7347C101.446 56.7584 100.111 64.678 92.4078 64.1672C82.9578 60.5117 94.2992 55.0224 101.151 52.7347Z" fill="#C9B1B1"/>
<path d="M96.0068 97.8479C94.4329 101.563 93.1496 109.491 100.608 111.485C110.732 111.064 101.759 102.218 96.0068 97.8479Z" fill="#C9B1B1"/>
<path d="M17.3937 60.0481C20.7528 62.2828 28.3062 65.0122 31.6473 58.0522C33.108 48.0256 22.7536 55.205 17.3937 60.0481Z" fill="#C9B1B1"/>
<path d="M133.843 115.737C130.681 119.689 122.695 125.832 116.047 118.788C110.477 107.362 125.59 111.993 133.843 115.737Z" fill="#D7C7C3"/>
<path d="M66.2052 105.177C79.4221 101.764 83.9065 106.955 84.4965 109.977C85.6766 114.777 79.7762 116.376 70.3355 113.177C62.783 110.617 60.1082 105.355 59.7148 103.044C58.7314 102.51 58.6527 102.19 66.2052 105.177Z" fill="#C9B1B1"/>
<path d="M73.9084 21.9575C83.4614 23.7434 84.4839 28.7925 83.8011 31.0938C82.8703 34.8256 78.5789 34.0816 73.7255 28.8604C69.8428 24.6835 69.9896 20.1562 70.5484 18.4146C70.1127 17.7308 70.1747 17.482 73.9084 21.9575Z" fill="#C9B1B1"/>
<path d="M93.8354 29.7838C87.7715 32.5496 89.4631 36.819 91.0669 38.608C93.5397 41.5331 96.2918 40.3383 97.2941 35.4048C98.0959 31.458 95.808 27.7751 94.5638 26.427C94.5501 25.8082 94.3853 25.6132 93.8354 29.7838Z" fill="#D7C7C3"/>
<path d="M3.21486 42.8011C3.61866 49.4538 8.21075 49.4081 10.4563 48.5536C14.0743 47.2961 13.9475 44.2985 9.70292 41.5916C6.30728 39.426 2.04846 40.2388 0.34351 40.9159C-0.238965 40.7065 -0.480162 40.7903 3.21486 42.8011Z" fill="#D7C7C3"/>
<path d="M134.236 96.1573C127.874 94.174 126.287 98.4834 126.289 100.886C126.18 104.715 129.028 105.66 133.065 102.652C136.294 100.246 137.046 95.9761 137.018 94.1419C137.42 93.6716 137.428 93.4164 134.236 96.1573Z" fill="#D7C7C3"/>
<path d="M83.5251 72.1502C89.8881 70.1669 91.475 74.4763 91.473 76.879C91.5813 80.7077 88.7338 81.6529 84.6968 78.6452C81.4671 76.2391 80.7157 71.969 80.7436 70.1348C80.3411 69.6645 80.3339 69.4093 83.5251 72.1502Z" fill="#D7C7C3"/>
<path d="M61.1386 36.7343C55.3223 39.9888 57.3589 44.1048 59.1043 45.756C61.809 48.4681 64.4537 47.0513 65.0473 42.0522C65.5221 38.0528 62.9395 34.5703 61.5888 33.329C61.5243 32.7134 61.344 32.5326 61.1386 36.7343Z" fill="#D7C7C3"/>
<path d="M36.959 34.4314C31.1427 37.6859 33.1794 41.802 34.9247 43.4532C37.6294 46.1652 40.2741 44.7485 40.8677 39.7493C41.3426 35.75 38.7599 32.2675 37.4092 31.0261C37.3447 30.4105 37.1644 30.2297 36.959 34.4314Z" fill="#D7C7C3"/>
<defs>
<radialGradient id="paint0_radial" cx="0" cy="0" r="1" gradientUnits="userSpaceOnUse" gradientTransform="translate(94.5843 109.32) rotate(90) scale(44.1698)">
<stop offset="0.484375" stop-color="#FBF8F3"/>
<stop offset="1" stop-color="#F2E8DE"/>
</radialGradient>
</defs>
</svg>
