<svg width="492" height="154" viewBox="0 0 492 154" fill="none" xmlns="http://www.w3.org/2000/svg">
<path fill-rule="evenodd" clip-rule="evenodd" d="M95.3688 0C97.0541 3.49677 98.6271 11.0424 91.4364 13.2509C81.5491 13.2509 89.9383 4.41698 95.3688 0ZM92.794 22.2308C93.5176 18.5546 92.5057 15.2119 91.3446 13.251L91.0103 13.4542C92.1298 15.345 93.1134 18.5886 92.4117 22.1535C91.7117 25.7092 89.3297 29.6121 83.6702 32.8237L83.658 32.8306L83.6469 32.8393C80.7442 35.0942 79.4922 37.6134 79.3828 40.3636C79.274 43.0991 80.2972 46.0357 81.8819 49.1326C83.2035 51.7154 84.8952 54.4297 86.6534 57.2508L86.6542 57.252L86.6574 57.2571L86.6599 57.261L86.6697 57.2768L86.674 57.2838L86.6765 57.2877C87.0049 57.8147 87.3357 58.3455 87.6668 58.8799C88.0474 59.4942 88.4285 60.1134 88.8072 60.7373C88.7538 61.5196 89.1539 62.2884 90.1608 63.013C90.5923 63.7563 91.0157 64.5059 91.4265 65.2615C83.2939 65.836 75.7692 68.6121 69.445 72.9975C68.6898 70.7528 68.249 68.5429 67.9946 66.4809L67.9935 66.4724L67.9918 66.464C67.6954 65.0625 66.4686 62.7463 63.7847 60.2642C63.0797 59.6122 62.2736 58.9482 61.3565 58.2857C63.6893 55.7719 64.1791 53.0726 63.8174 50.7027C63.6047 49.3084 63.098 48.0308 62.5043 46.9719C63.7568 46.4975 64.7178 44.8265 65.0473 42.0522C65.5221 38.0529 62.9395 34.5704 61.5888 33.329C61.5243 32.7134 61.344 32.5326 61.1386 36.7343C55.3223 39.9889 57.3589 44.1049 59.1043 45.7561C60.1561 46.8108 61.1989 47.241 62.1155 47.079C62.7097 48.1177 63.2215 49.3827 63.4321 50.763C63.7787 53.0341 63.3121 55.6252 61.0341 58.0561C58.4904 56.2703 55.1302 54.5065 50.7582 53.0298C43.405 50.5461 39.6673 47.4047 37.9275 44.7776C39.3718 44.5282 40.5042 42.8103 40.8677 39.7494C41.3426 35.75 38.7599 32.2675 37.4092 31.0262C37.3447 30.4106 37.1644 30.2298 36.959 34.4315C31.1427 37.686 33.1794 41.802 34.9247 43.4532C35.8052 44.3361 36.6794 44.7815 37.4785 44.8081C39.1946 47.5136 42.9099 50.7068 50.1342 53.2325C47.8308 54.1304 44.2206 55.0572 40.3163 55.1285C36.1243 55.205 31.6144 54.2954 28.0134 51.3306C22.9448 47.1575 17.223 46.0602 13.0203 46.0999C13.189 44.7496 12.1058 43.124 9.70292 41.5916C6.30728 39.426 2.04847 40.2388 0.343518 40.9159C-0.238958 40.7065 -0.480155 40.7903 3.21487 42.8011C3.61867 49.4538 8.21076 49.4081 10.4563 48.5536C11.8217 48.0791 12.6537 47.3567 12.9324 46.4957C17.0657 46.44 22.7442 47.5014 27.7675 51.6372C28.4074 52.164 29.0746 52.6272 29.7626 53.0326C26.7225 52.58 20.9554 56.8298 17.3937 60.0481C20.7528 62.2828 28.3062 65.0122 31.6473 58.0522C31.9683 55.8484 31.7186 54.4758 31.0766 53.727C34.0308 55.1197 37.2716 55.5792 40.3233 55.5235C44.5283 55.4467 48.3948 54.3918 50.7039 53.4279C56.8012 55.4967 60.8891 58.1212 63.5219 60.556C66.1633 62.9988 67.3318 65.2425 67.6088 66.5385C67.8699 68.6513 68.3255 70.9224 69.1118 73.2308C57.8 81.2294 50.4145 94.4123 50.4145 109.32C50.4145 133.714 70.19 153.49 94.5843 153.49C118.979 153.49 138.754 133.714 138.754 109.32C138.754 104.781 138.069 100.402 136.798 96.2804C136.967 95.43 137.026 94.6808 137.018 94.1419C137.309 93.8017 137.393 93.5741 136.21 94.5113C130.123 77.4006 113.784 65.1504 94.5843 65.1504C93.6681 65.1504 92.7584 65.1783 91.856 65.2333C91.5341 64.6378 91.2044 64.0464 90.869 63.4591C91.3044 63.7015 91.8152 63.938 92.4078 64.1672C100.111 64.678 101.447 56.7584 101.151 52.7347C96.5378 54.275 89.8893 57.2667 88.9217 60.1727C88.614 59.6683 88.3052 59.1672 87.997 58.6698C87.6568 58.1207 87.3173 57.576 86.9807 57.0359C85.393 54.4883 83.8683 52.042 82.6205 49.7018C83.4182 50.1131 84.5699 50.2331 85.9921 49.6385C87.9038 48.8393 90.3066 46.7513 93.0527 42.3455C93.6238 41.4293 94.216 40.62 94.822 39.907C95.3349 39.6292 95.8073 39.1428 96.2142 38.4525C98.0781 36.7344 100.015 35.807 101.826 35.3839C103.565 34.9777 105.194 35.0352 106.537 35.31C107.899 38.5368 116.362 35.7777 121.495 33.4491C118.974 30.2989 112.608 25.4023 107.309 31.017C106.476 32.7267 106.223 33.9853 106.406 34.8823C105.053 34.6328 103.446 34.6001 101.739 34.999C100.09 35.384 98.3529 36.17 96.6621 37.5448C96.9145 36.935 97.1283 36.2211 97.2941 35.4048C98.0959 31.458 95.808 27.7751 94.5638 26.427C94.5501 25.8082 94.3853 25.6132 93.8354 29.7838C87.7715 32.5496 89.4631 36.819 91.0669 38.608C92.0818 39.8085 93.1438 40.315 94.1125 40.154C93.6381 40.7528 93.1738 41.4114 92.7231 42.1345C89.9957 46.5104 87.6472 48.5192 85.8434 49.2733C84.0685 50.0154 82.8242 49.5448 82.2146 48.9245C80.6471 45.8559 79.668 43.0031 79.7723 40.3795C79.8763 37.7664 81.0565 35.3534 83.873 33.1614C89.6078 29.9034 92.0691 25.9135 92.794 22.2308ZM73.9084 21.9575C83.4614 23.7434 84.4839 28.7925 83.8011 31.0938C82.8703 34.8256 78.5789 34.0816 73.7255 28.8604C69.8428 24.6835 69.9896 20.1562 70.5484 18.4146C70.1127 17.7308 70.1747 17.482 73.9084 21.9575ZM159.199 31.3101C156.832 35.4646 155.648 40.1835 155.648 45.4664C155.648 50.7495 156.832 55.4682 159.199 59.6228C161.617 63.7774 164.884 67.0344 169 69.3938C173.168 71.7019 177.824 72.856 182.97 72.856C189.041 72.856 194.315 71.3428 198.791 68.3167C203.319 65.2392 206.483 60.9564 208.284 55.4683H195.859C194.624 58.0328 192.874 59.9819 190.61 61.3154C188.398 62.5977 185.825 63.2388 182.892 63.2388C179.754 63.2388 176.95 62.5208 174.48 61.0846C172.062 59.5972 170.158 57.5199 168.769 54.8527C167.431 52.1343 166.762 49.0056 166.762 45.4664C166.762 41.8761 167.431 38.7473 168.769 36.0802C170.158 33.413 172.062 31.3613 174.48 29.9252C176.95 28.4377 179.754 27.6941 182.892 27.6941C185.825 27.6941 188.398 28.3352 190.61 29.6174C192.874 30.8998 194.624 32.8231 195.859 35.3877H208.284C206.483 29.9508 203.319 25.6937 198.791 22.6162C194.263 19.5387 188.99 18 182.97 18C177.824 18 173.168 19.1797 169 21.5391C164.884 23.8472 161.617 27.1042 159.199 31.3101ZM217.282 39.4653C215.584 42.7993 214.735 46.6205 214.735 50.929C214.735 55.2887 215.584 59.1612 217.282 62.5464C219.031 65.8804 221.372 68.4706 224.305 70.317C227.289 72.1635 230.582 73.0868 234.184 73.0868C237.374 73.0868 240.178 72.4456 242.596 71.1633C245.066 69.8298 246.995 68.1628 248.385 66.1625V72.3943H259.267V29.7714H248.385V35.8494C246.944 33.9003 245.014 32.2845 242.596 31.0023C240.229 29.7201 237.451 29.0789 234.261 29.0789C230.608 29.0789 227.289 29.9764 224.305 31.7717C221.372 33.5669 219.031 36.1315 217.282 39.4653ZM246.841 44.3893C247.87 46.2358 248.385 48.467 248.385 51.0828C248.385 53.6987 247.87 55.9555 246.841 57.8533C245.812 59.6998 244.423 61.1359 242.673 62.1617C240.924 63.1363 239.046 63.6235 237.039 63.6235C235.084 63.6235 233.232 63.1106 231.482 62.0848C229.785 61.059 228.395 59.5972 227.315 57.6994C226.286 55.7503 225.771 53.4935 225.771 50.929C225.771 48.3644 226.286 46.1588 227.315 44.3124C228.395 42.4147 229.785 40.9785 231.482 40.0039C233.18 39.0294 235.033 38.5421 237.039 38.5421C239.046 38.5421 240.924 39.0551 242.673 40.0808C244.423 41.0554 245.812 42.4916 246.841 44.3893ZM280.625 36.3879C282.014 34.1311 283.815 32.3616 286.027 31.0792C288.291 29.797 290.864 29.1559 293.745 29.1559V40.4656H290.89C287.494 40.4656 284.921 41.2606 283.172 42.8506C281.474 44.4407 280.625 47.2103 280.625 51.1598V72.3943H269.82V29.7714H280.625V36.3879ZM366.779 34.0028C363.589 30.7715 359.37 29.1559 354.122 29.1559C351.035 29.1559 348.153 29.8995 345.478 31.387C342.854 32.8745 340.847 34.8491 339.458 37.3112C338.017 34.6953 335.985 32.6949 333.361 31.3101C330.737 29.8739 327.752 29.1559 324.408 29.1559C321.784 29.1559 319.366 29.6687 317.153 30.6946C314.992 31.7203 313.217 33.1309 311.828 34.9261V29.7714H301.023V72.3943H311.828V48.8517C311.828 45.5177 312.677 42.9788 314.375 41.2349C316.124 39.4397 318.491 38.5421 321.475 38.5421C324.408 38.5421 326.723 39.4397 328.421 41.2349C330.119 42.9788 330.968 45.5177 330.968 48.8517V72.3943H341.773V48.8517C341.773 45.5177 342.622 42.9788 344.32 41.2349C346.069 39.4397 348.411 38.5421 351.343 38.5421C354.276 38.5421 356.591 39.4397 358.289 41.2349C359.987 42.9788 360.836 45.5177 360.836 48.8517V72.3943H371.641V47.3899C371.641 41.6453 370.021 37.1829 366.779 34.0028ZM421.642 50.1596C421.642 51.6983 421.539 53.0832 421.333 54.3142H390.076C390.333 57.3917 391.413 59.8024 393.317 61.5463C395.221 63.2902 397.562 64.1621 400.34 64.1621C404.354 64.1621 407.209 62.4438 408.907 59.0073H420.561C419.326 63.1106 416.959 66.4958 413.461 69.163C409.962 71.7789 405.666 73.0868 400.572 73.0868C396.456 73.0868 392.751 72.1891 389.458 70.394C386.217 68.5475 383.67 65.9573 381.817 62.6234C380.017 59.2894 379.116 55.4426 379.116 51.0828C379.116 46.6718 380.017 42.7993 381.817 39.4653C383.618 36.1315 386.139 33.5669 389.381 31.7717C392.622 29.9764 396.353 29.0789 400.572 29.0789C404.637 29.0789 408.264 29.9508 411.454 31.6947C414.696 33.4386 417.191 35.9263 418.94 39.1576C420.741 42.3376 421.642 46.005 421.642 50.1596ZM410.451 47.0822C410.399 44.3124 409.396 42.1068 407.441 40.4656C405.485 38.7729 403.093 37.9266 400.263 37.9266C397.588 37.9266 395.324 38.7473 393.471 40.3887C391.671 41.9786 390.564 44.2098 390.153 47.0822H410.451ZM465.571 34.0028C462.432 30.7715 458.316 29.1559 453.222 29.1559C450.547 29.1559 448.077 29.6943 445.813 30.7715C443.6 31.7974 441.774 33.2335 440.333 35.08V29.7714H429.528V72.3943H440.333V48.8517C440.333 45.4664 441.182 42.8762 442.88 41.0811C444.63 39.2346 446.996 38.3113 449.981 38.3113C452.913 38.3113 455.229 39.2346 456.927 41.0811C458.625 42.8762 459.474 45.4664 459.474 48.8517V72.3943H470.279V47.3899C470.279 41.6453 468.709 37.1829 465.571 34.0028ZM286.494 134.365V80.5023H274.284L257.128 120.552L239.972 80.5023H227.685V134.365H238.504V99.331L253.032 134.365H261.224L275.675 99.331V134.365H286.494ZM296.958 101.337C295.258 104.681 294.408 108.514 294.408 112.835C294.408 117.208 295.258 121.092 296.958 124.487C298.71 127.831 301.054 130.429 303.991 132.281C306.979 134.133 310.276 135.059 313.882 135.059C317.077 135.059 319.884 134.416 322.306 133.13C324.779 131.793 326.711 130.121 328.102 128.114V134.365H338.998V91.6143H328.102V97.7105C326.659 95.7556 324.727 94.1351 322.306 92.849C319.936 91.5629 317.154 90.9198 313.96 90.9198C310.302 90.9198 306.979 91.8201 303.991 93.6207C301.054 95.4212 298.71 97.9935 296.958 101.337ZM326.556 106.276C327.587 108.128 328.102 110.366 328.102 112.99C328.102 115.613 327.587 117.877 326.556 119.78C325.526 121.632 324.135 123.073 322.383 124.102C320.631 125.079 318.751 125.568 316.742 125.568C314.784 125.568 312.929 125.053 311.178 124.024C309.478 122.996 308.087 121.529 307.005 119.626C305.974 117.671 305.459 115.407 305.459 112.835C305.459 110.263 305.974 108.051 307.005 106.199C308.087 104.295 309.478 102.855 311.178 101.878C312.878 100.9 314.733 100.411 316.742 100.411C318.751 100.411 320.631 100.926 322.383 101.955C324.135 102.932 325.526 104.373 326.556 106.276ZM362.161 100.489V121.169C362.161 122.61 362.496 123.664 363.166 124.333C363.887 124.95 365.072 125.259 366.72 125.259H371.744V134.365H364.943C355.824 134.365 351.265 129.941 351.265 121.092V100.489H346.164V91.6143H351.265V81.0424H362.161V91.6143H371.744V100.489H362.161ZM392.121 121.169V100.489H401.704V91.6143H392.121V81.0424H381.225V91.6143H376.125V100.489H381.225V121.092C381.225 129.941 385.785 134.365 394.904 134.365H401.704V125.259H396.681C395.032 125.259 393.847 124.95 393.126 124.333C392.456 123.664 392.121 122.61 392.121 121.169ZM428.496 135.059C424.375 135.059 420.665 134.159 417.368 132.359C414.071 130.506 411.469 127.909 409.563 124.565C407.708 121.221 406.781 117.362 406.781 112.99C406.781 108.617 407.734 104.758 409.64 101.414C411.598 98.0706 414.251 95.4984 417.6 93.6978C420.949 91.8458 424.684 90.9198 428.805 90.9198C432.927 90.9198 436.662 91.8458 440.011 93.6978C443.359 95.4984 445.987 98.0706 447.893 101.414C449.851 104.758 450.83 108.617 450.83 112.99C450.83 117.362 449.825 121.221 447.816 124.565C445.858 127.909 443.179 130.506 439.779 132.359C436.43 134.159 432.669 135.059 428.496 135.059ZM428.496 125.645C430.454 125.645 432.283 125.182 433.983 124.256C435.734 123.279 437.125 121.838 438.156 119.935C439.186 118.031 439.702 115.716 439.702 112.99C439.702 108.925 438.62 105.813 436.456 103.652C434.344 101.44 431.742 100.334 428.651 100.334C425.56 100.334 422.958 101.44 420.846 103.652C418.785 105.813 417.754 108.925 417.754 112.99C417.754 117.054 418.759 120.192 420.768 122.404C422.829 124.565 425.405 125.645 428.496 125.645ZM465.721 133.207C468.503 134.442 471.646 135.059 475.149 135.059C478.549 135.059 481.511 134.519 484.036 133.439C486.612 132.307 488.569 130.764 489.909 128.809C491.3 126.854 491.995 124.642 491.995 122.172C491.944 119.343 491.171 117.079 489.677 115.382C488.235 113.633 486.509 112.346 484.5 111.523C482.49 110.7 479.94 109.903 476.849 109.131C473.809 108.36 471.568 107.614 470.126 106.893C468.683 106.122 467.962 105.016 467.962 103.575C467.962 102.289 468.477 101.286 469.507 100.566C470.589 99.8455 472.109 99.4854 474.067 99.4854C476.179 99.4854 477.854 99.9998 479.09 101.029C480.378 102.006 481.099 103.344 481.254 105.041H491.609C491.3 100.72 489.626 97.299 486.586 94.7781C483.546 92.2059 479.476 90.9198 474.376 90.9198C470.924 90.9198 467.91 91.4857 465.334 92.6175C462.81 93.7493 460.852 95.2926 459.461 97.2475C458.122 99.2024 457.452 101.363 457.452 103.73C457.452 106.61 458.173 108.9 459.616 110.597C461.11 112.295 462.861 113.555 464.871 114.379C466.932 115.202 469.559 115.999 472.753 116.771C475.844 117.594 478.085 118.366 479.476 119.086C480.919 119.755 481.64 120.783 481.64 122.172C481.64 123.459 481.048 124.513 479.863 125.336C478.729 126.159 477.132 126.571 475.072 126.571C472.959 126.571 471.182 126.031 469.739 124.95C468.348 123.87 467.55 122.507 467.344 120.861H456.447C456.602 123.484 457.478 125.876 459.075 128.037C460.723 130.198 462.939 131.921 465.721 133.207ZM222.388 80.5023H153V134.53H222.388V80.5023ZM163.532 103.849C162.514 105.84 162.005 108.123 162.005 110.698C162.005 113.302 162.514 115.616 163.532 117.639C164.581 119.63 166 121.178 167.79 122.281C169.579 123.384 171.554 123.936 173.714 123.936C175.626 123.936 177.308 123.553 178.758 122.787C180.208 122.021 181.334 121.01 182.136 119.753V123.522H188.708V117.166C188.793 117.341 188.881 117.514 188.974 117.685C190.084 119.676 191.611 121.224 193.555 122.327C195.53 123.4 197.751 123.936 200.219 123.936C203.274 123.936 205.85 123.155 207.948 121.592C210.046 119.998 211.466 117.976 212.206 115.524H205.218C204.2 117.577 202.487 118.604 200.081 118.604C198.415 118.604 197.011 118.083 195.869 117.041C194.728 115.999 194.08 114.559 193.926 112.72H212.669C212.792 111.985 212.854 111.157 212.854 110.238C212.854 107.756 212.314 105.565 211.234 103.665C210.185 101.734 208.689 100.248 206.745 99.2059C204.832 98.1639 202.657 97.643 200.219 97.643C197.69 97.643 195.453 98.1793 193.509 99.2518C191.565 100.324 190.053 101.857 188.974 103.849C188.881 104.019 188.793 104.192 188.708 104.367V89.5068H182.136V101.596C181.242 100.401 180.038 99.451 178.527 98.7462C177.015 98.0107 175.426 97.643 173.76 97.643C171.569 97.643 169.579 98.1793 167.79 99.2518C166 100.324 164.581 101.857 163.532 103.849ZM181.257 106.79C181.874 107.894 182.183 109.227 182.183 110.79C182.183 112.352 181.874 113.701 181.257 114.835C180.64 115.938 179.807 116.796 178.758 117.409C177.709 117.991 176.583 118.282 175.38 118.282C174.207 118.282 173.096 117.976 172.047 117.363C171.029 116.75 170.196 115.877 169.548 114.743C168.931 113.578 168.623 112.23 168.623 110.698C168.623 109.165 168.931 107.848 169.548 106.744C170.196 105.611 171.029 104.753 172.047 104.17C173.066 103.588 174.176 103.297 175.38 103.297C176.583 103.297 177.709 103.603 178.758 104.216C179.807 104.799 180.64 105.657 181.257 106.79ZM204.339 104.446C205.511 105.427 206.113 106.744 206.143 108.399H193.972C194.219 106.683 194.882 105.35 195.962 104.4C197.073 103.419 198.43 102.929 200.034 102.929C201.731 102.929 203.166 103.435 204.339 104.446Z" fill="white"/>
</svg>
